<svg xmlns="http://www.w3.org/2000/svg" id="Layer_1" data-name="Layer 1" viewBox="0 0 4299 3686"><defs><style>      .cls-1 {        fill: #e0e21f;      }      .cls-1, .cls-2, .cls-3, .cls-4, .cls-5 {        fill-rule: evenodd;      }      .cls-1, .cls-2, .cls-4, .cls-5 {        stroke-width: 0px;      }      .cls-3 {        stroke: #000;        stroke-miterlimit: 10;        stroke-width: .57px;      }      .cls-4 {        fill: #404041;      }      .cls-5 {        fill: #999;      }    </style></defs><path class="cls-4" d="m2353.58,3526.68l-899.53-7.96c-47.14-76.25,73.92-417.85,75.62-418.1,5.94,29.37,380.99,44.55,434.8,83.35,47.62,34.27,345.49-33.9,350.33-19.09,23.99,74.29,15.27,123.86,79.86,179.55,1.09.98-4.12,174.29-43.87,174.29.36,0,3.39-.86,2.79,7.96h0Z"></path><path class="cls-5" d="m2210.23,1854.4c25.2-8.57,231.09,87.76,257.75,172.82,39.38,125.94-14.18,290.2,17.21,445.88,15.27,75.15,27.51,204.52,27.51,281.75,0,99.51-53.44,195.22-47.74,329.61,2.18,49.2-35.63,103.18,10.91,217.13,18.54,45.16-122.27,39.29-122.27-172.82,0-35.25-39.87-151.04-39.87-277.47,0-71.85-42.17-685.04-58.65-723.6-.48-.98-47.26-272.57-44.84-273.31h0Z"></path><path class="cls-5" d="m1597.29,957.86c-59.02,52.14-139.12,371.47-131.36,466.32.12.98-11.88,203.54-11.88,241.24,0,126.07,8.97,278.2,54.65,389.95,18.42,45.16,44.59,212.36,8,264.25-38.9,55.2-115.24,362.04-169.17,472.44-17.94,36.84-28.6,57.65-28.72,71.36,0,45.53,99.13,21.17,95.37,184.94-4,172.09,19.39-36.35,96.58-60.83,20.48-6.61,69.07,3.06,101.07,17.99,131.72,61.57,246.97,29.86,302.47-130.35,14.06-40.51,158.26-455.43,161.66-509.16,12.12-192.41,34.66-466.33-56.47-569.99-52.96-60.34-172.8-83.72-305.74-252.26-32.36-41,16.24-424.59,37.81-477.34,70.53-172.82-8-19.71-154.26-108.56h0Z"></path><path class="cls-1" d="m451.04,1277.43c110.03,10.28,264.66,206.85,332.88,292.52,27.02,33.78,187.83,341.48,149.66,287.38-46.65-66.34,72.71-327.28,36.23-366.21-12.6-13.34-189.77-73.8-28.96-202.56,48.96-39.17,122.39-129.49,202.37-218.11,88.22-97.55,183.59-194.61,243.09-257.27,56.11-58.99,108.58-127.17,144.69-52.26,27.02,56.18,99.85,121.66,83.61,138.06-58.41,58.87-218.49,248.22-298.95,337.69-38.54,42.84-362.33,293.5-338.22,352.37,13.45,32.92,73.44,178.45,126.15,352.62,58.65,193.26,110.4,416.27,119.24,439.28,39.99,104.53,113.91,587.86-165.77,521.65-35.51-8.44-33.45,11.63-44.47,55.32-14.06,56.06-36.84,143.2-51.14,176.25-17.81,41.25-88.34,201.46-149.66,148.71-77.56-66.83-61.56-29.99-152.81,15.79-268.66,134.63-129.91,43.08-355.3,35.49-167.59-5.75-143.24-240.75-108.46-326.06,51.74-126.56,76.47-215.66,2.42-341.97-31.39-53.49,14.66-694.35,22.78-800.09,19.63-252.87,81.8-355.92,205.28-566.81,3.76-6.37,19.02-22.28,25.33-21.79h0Z"></path><path class="cls-2" d="m310.35,835.71c-8.97-36.47,48.59-129.74,70.53-148.34,38.66-32.56,82.77-29.01,123.97-56.91,57.68-39.41,40.11-24.84,119.97-29.99,44.72-2.94,67.74-20.44,92.34-20.56,4.24-.12,13.21,0,14.3,5.75-2.3-2.69-4-3.43-7.88-3.8-21.33-1.47-56.59,20.44-98.4,24.23-80.1,7.22-59.62-8.57-115.85,31.09-42.41,29.99-85.67,24.23-124.45,55.69-24.6,19.95-75.13,104.04-74.53,142.83h0Z"></path><path class="cls-2" d="m735.94,588.72c57.56,59.73-80.95,102.08,5.82,190.32,67.98,69.03,16.24,74.17,25.33,139.77,4,28.27,8.12,28.76,10.3,63.64-2.42-11.63-14.3-59.12-15.03-62.91-12.36-69.52,40.23-66.34-26.42-134.02-90.52-92.04,44.71-123.13,0-196.81h0Z"></path><path class="cls-2" d="m313.38,835.71c-53.92,26.56-35.02,68.66-30.9,127.29,8.12,114.56,41.2,91.67,100.1,174.41,35.75,50.18,11.39,89.72,95.37,126.68l-14.78-4.29c-60.95-24.11-56.96-72.33-77.8-106.24-54.29-88.25-102.88-59.97-109.31-190.57-2.42-47.86-20.72-109.91,37.32-127.29h0Z"></path><path class="cls-2" d="m608.33,948.07c-33.45,75.39-29.93,84.94,11.88,153.48,39.75,65.11-14.54,112.73-76.83,130.23-12.48,3.43-37.69,12.97-46.17,24.72,2.42-12.97,35.99-26.19,45.44-29.25,56.35-18.24,106.16-60.34,70.89-121.17-39.02-67.56-47.5-87.02-5.21-158.01h0Z"></path><path class="cls-2" d="m688.44,951.13c-44.72-23.01-40.84-62.67-85.68,8.32-15.75,24.97,127.6,204.77,132.57,88.37h0c-.36-.74-.73.12-.97-2.45,1.09,1.22,2.06,1.59,2.18,3.3,10.3,120.56-169.05-50.06-139.48-93.27,48.84-71.72,50.41-34.76,91.37-4.28h0Z"></path><path class="cls-2" d="m664.68,960.06c-33.2-21.66-35.51,15.3,17.45,53.73l18.18,13.59c-109.55-48.47-55.14-103.55-35.63-67.32h0Z"></path><path class="cls-2" d="m664.68,925.67c40.47,12.73,82.04,36.35,89.31,80.78,6.3,38.68,35.99-3.3,3.64,98.9-12.97,41.12,18.06,128.27,75.86,129.98,71.5,2.08,50.41,72.34,139.24,11.63,3.15-2.2,2.67-.86,4.85-3.92-.24,1.22-.24,1.59-.97,2.57-64.47,70.74-93.43-3.31-142.63-3.8-64.23-.49-99.61-91.67-83.49-139.53,32.96-98.04,4-51.89-2.18-94.98-6.06-42.84-45.93-64.87-83.62-81.64h0Z"></path><path class="cls-2" d="m778.84,975c62.77,53.12,27.75,38.31,59.98,75.64,48.72,56.79,28.96-20.68,116.46-11.26-14.91,2.45-52.47,6-61.8,21.42-23.99,39.41-59.98,4.65-71.86-24.73-18.66-45.78-12.6-24.23-42.78-61.07h0Z"></path><path class="cls-2" d="m947.88,1019.92c14.78,40.02,29.81,17.5,1.7,69.76-11.15,20.81,66.29,95.47,29.45,156.42,24.48-74.42-53.32-129.98-35.02-160.34,33.81-55.81,3.88-29.01,3.88-65.85h0Z"></path><path class="cls-2" d="m722.61,687.49c37.93,20.81,141.42,90.57,152.69,126.19,23.63,74.29-30.78,38.55,55.99,95.71,55.62,36.6,90.4,64.62,17.45,104.28-3.76,1.96-4.12,3.92-5.21,7.83-.73-4.16.97-7.22,4.36-9.42,63.74-41.37,38.29-59.97-20.24-96.69-90.89-56.91-38.78-28.15-59.86-99.38-8.97-30.23-111.85-105.75-145.17-128.52h0Z"></path><path class="cls-2" d="m870.81,811.84c-12.72,19.83-18.78,31.58-26.66,53.86-1.7-29.99,2.3-36.84,26.66-53.86h0Z"></path><path class="cls-2" d="m847.06,864.23c3.63-20.2,23.02-35.13,25.2-31.46-1.94,8.57-19.63,26.44-25.2,31.46h0Z"></path><path class="cls-2" d="m841.12,1431.77c2.42-37.94,12.48-112.48,45.2-135.74,11.15-7.96,21.93-13.59,31.99-23.01-4.36,11.26-19.87,20.44-28.6,27.66-24.72,20.44-40.72,98.53-48.59,131.08h0Z"></path><path class="cls-2" d="m989.45,1211.59c66.89-56.55,44.96-36.72,96.7-105.02,79.86-105.5,226-214.07,314.34-317.86,27.27-31.94,62.17-63.28,93.07-92.16-28.11,32.19-62.04,61.69-87.98,93.14-87.74,106.73-198.37,192.4-292.05,293.75-67.74,73.07-35.87,63.52-124.09,128.15h0Z"></path><path class="cls-2" d="m1493.56,699.48c16.97,33.54,132.21,162.79,146.75,161.68-6.18,13.46-131.48-104.52-146.75-161.68h0Z"></path><path class="cls-2" d="m967.15,1584.52c47.99-58.14,95.25-81.27,144.93-136.47,64.95-72.21,133.42-124.96,194.25-199.63,45.68-55.93,126.63-133.41,178.86-188.98,31.27-33.29,149.78-155.32,159.6-189.22-3.63,31.09-91.61,122.39-110.64,143.94-69.92,79.31-154.63,160.7-220.43,238.55-64.35,76.13-130.27,126.19-197.16,198.52-49.32,53.24-99.13,79.8-149.42,133.29h0Z"></path><path class="cls-2" d="m504.6,1259.56c87.37,23.01,212.79,58.14,282.11,116.89,33.08,27.91,28.84,27.54,63.74,55.2,10.66,8.45,74.16,69.28,77.8,83.23.85.49-.24,2.45-.85.61-.61,0-1.7.12-1.7.12.49-.24.85-.49,1.21-.61-28.96-30.35-45.69-52.87-79.98-78.7-35.39-26.56-31.99-26.93-65.07-53.85-71.26-58.02-190.74-91.8-277.26-122.88h0Zm423.04,256.05h.12-.12Z"></path><path class="cls-2" d="m853,1436.3c54.77,24.48,156.32,2.08,106.76,80.05-9.57,15.18-.61,39.9,3.03,56.18-8.36-17.75-18.9-40.88-8.12-59.85,40.96-72.58-55.26-37.82-101.67-76.37h0Z"></path><path class="cls-2" d="m1499.5,710.01c15.27-31.33,28.48-49.2,53.32-73.44-15.88,31.21-28.48,48.84-53.32,73.44h0Z"></path><path class="cls-2" d="m1554.27,636.58c28.84,55.93,61.08,76.5,115.73,107.83-57.44-22.03-99.13-45.17-115.73-107.83h0Z"></path><path class="cls-2" d="m1616.56,844.77c12.24-36.6,26.78-60.83,47.5-92.9-12.72,37.58-23.63,60.95-47.5,92.9h0Z"></path><path class="cls-2" d="m1655.1,775.86c-3.15,60.46,4.12,31.46-22.18,86.9,15.27-58.26,7.88-29.25,22.18-86.9h0Z"></path><path class="cls-2" d="m1929.45,700.95c.97,43.2-119.36,53.86-140.93,111.99-6.79,18.48-17.81,66.58-23.63,90.21,1.82-27.78,8.85-67.56,16.97-92.41,21.81-67.07,130.75-62.18,147.6-109.79h0Z"></path><path class="cls-2" d="m1644.8,879.16c27.99,38.92,14.18,21.3,18.3,53.98,31.51,6.49,79.98-24.11,106.16-34.51l-29.08,20.81c-13.93,8.81-74.04,31.58-83.01,17.99-2.18-3.43,4-22.4-12.36-58.26h0Z"></path><path class="cls-2" d="m1773.73,885.16c37.81,13.58,9.33,48.83,0,73.43-2.54-41.61,27.87-41.74,0-73.43h0Z"></path><path class="cls-2" d="m1646.25,515.28c-.61-4.9-12.36-151.4,7.03-144.06l.36.37c-8.48,9.18-6.3,125.45-7.39,143.69h0Z"></path><path class="cls-2" d="m1653.64,373.06c24.11-27.29,28.11,41.49,27.14,53.12l-3.39,20.2c-3.64-31.21,3.76-77.35-23.75-73.32h0Z"></path><path class="cls-2" d="m1555.73,636.58c38.66-50.55,55.74-42.84,79.13-104.16,29.45-76.99,79.37-131.45,112.09-201.83,25.33-54.59,43.99-76.62,63.98-135.61,0-.24,21.33-64.38,32.48-53.98-13.21-2.08-27.02,49.94-28.6,55.2-18.18,60.09-36.6,82.25-61.2,137.57-31.39,70.87-82.89,126.19-113.06,200.36-24.48,60.09-41.81,56.18-84.83,102.44h0Z"></path><path class="cls-2" d="m1843.41,142.47c47.62-1.35,23.27,214.31,12.48,251.4-16.24,56.06,13.57,36.84-36.23,117.01,41.44-87.39,14.66-61.44,29.81-119.7,9.94-38.19,35.75-230.71-6.06-248.7h0Z"></path><path class="cls-2" d="m1804.88,539.27c8.24-20.32,70.04-156.54,105.31-88.37-6.54-5.75-9.09-7.34-16.36-11.87-22.54-14.32-80.34,86.41-88.95,100.24h0Z"></path><path class="cls-2" d="m1908.61,447.97c15.03,94.49-6.91,44.18-43.38,139.41-56.23,146.38-103,52.75-162.38,115.05l-31.38,40.51c53.8-82.86,33.08-57.4,119.36-75.64,58.65-12.49,60.83-95.1,96.1-136.59,39.51-46.76,20-34.03,21.69-82.74h0Z"></path><path class="cls-2" d="m1865.71,164.87c64.35,14.2,49.56,145.77,48.84,190.2l-5.09-46.76c-3.88-52.38,5.45-113.95-43.75-143.45h0Z"></path><path class="cls-2" d="m1853.83,425.44c11.27-23.26,58.05-97.79,94.28-82.13,22.3,9.67-2.3,65.36,6.91,111.01,20.6,102.2,42.05,55.69,26.3,171.84l.24-23.13c4.73-85.31-18.3-75.27-34.17-146.75-10.42-46.88,10.79-96.94-.36-105.75-25.81-20.19-83.98,60.34-93.19,74.91h0Z"></path><path class="cls-2" d="m1890.92,536.33c7.15,258.13,16.97,55.69,136.33,308.43l-31.02-53.73c-97.55-153.97-122.64-52.87-105.31-254.7h0Z"></path><path class="cls-2" d="m1984.22,584.19c44.11,50.67,85.55,99.14,130.51,149.69-68.83-56.42-83.86-77.48-130.51-149.69h0Z"></path><path class="cls-2" d="m443.89,1257.12c-26.05,36.96-48.96,69.15-73.56,107.34,24.48-60.22,27.39-62.79,73.56-107.34h0Z"></path><path class="cls-2" d="m371.67,1363.11c163.59,35.62,200.55,12.97,302.95,146.63,3.76,4.9,8.36,10.77,10.18,17.13,5.09-6.98,15.51-19.83,20.84-17.87-12.72,5.51-21.81,30.84-23.51,21.91-2.42-12-39.26-50.67-45.81-57.65-91.86-96.81-146.14-69.15-264.66-110.15h0Z"></path><path class="cls-2" d="m700.19,1499.46c84.46,79.56,186.98,294.36,239.21,398.27,31.38,62.54,52.35,127.66,71.5,194.98-28.84-71.23-40.35-120.68-77.56-191.79-61.68-117.74-146.63-301.7-233.15-401.46h0Z"></path><path class="cls-2" d="m448.01,1257.12c202.13,72.83,344.64,268.05,441.22,454.45,75.5,145.89,112.46,285.18,148.08,443.93,6.67,29.86,5.21,21.05,7.63,43.21l-2.91-13.95c-45.2-198.52-99-371.59-204.07-547.59-96.34-161.2-213.64-305.74-389.96-380.04h0Z"></path><path class="cls-2" d="m790.11,1542.05c10.18,9.92,71.26,73.56,84.83,91.55,23.39-17.26,57.56-78.94,69.19-101.1l-12.97,34.76c-.12.25-55.26,97.3-62.05,72.09-27.27-31.09-53.92-64.5-79.01-97.3h0Zm86.4,93.76c.48.74.85,1.47.97,1.83-.12-.73-.49-1.35-.97-1.83h0Z"></path><path class="cls-2" d="m880.02,1635.68c31.39,11.99,39.38,18.48,74.41,29.74,22.3,7.1-17.69,125.09-8.6,171.48.36,2.08.24,1.83-.36,3.92-18.9-62.3,15.75-127.17,7.03-168.78h.12c-38.9-13.83-39.14-16.52-72.59-36.35h0Z"></path><path class="cls-2" d="m941.82,1832.13c-.85-77.23,7.88-178.94,16.6-256.91,5.94,64.13-4.73,192.89-16.6,256.91h0Z"></path><path class="cls-2" d="m963.88,1589.17c43.5,60.71,150.75,308.68,168.81,382.24,20.84,85.18,34.66,157.03,59.62,243.2,18.42,63.28,37.93,117.5,59.38,179.8,36.6,105.87,64.59,508.8-91.61,527.52-47.62,5.75-80.47,11.14-123.36-6-1.94-.73-7.03-.61-9.21-.73,2.42-.37,7.03-1.1,9.57-.25,44.47,15.42,73.8,9.91,122.51,3.43,150.75-20.19,120.82-417.61,84.46-520.79-22.3-63.64-40.96-115.91-59.38-180.78-24.72-86.78-37.81-158.62-58.29-244.42-16.84-70.5-123.24-320.55-162.5-383.22h0Z"></path><path class="cls-2" d="m1030.29,2130.77c38.54,103.79,46.53,355.43,35.26,466.2-19.27,190.32-25.93,603.77-211.58,710.26-11.51,6.61-32.96,17.5-39.26-1.22,8.97,16.03,24.96,7.22,38.05-.74,181.04-110.28,184.56-518.46,205.52-709.03,12.48-114.81,5.33-354.94-27.99-465.47h0Z"></path><path class="cls-2" d="m325.5,1555.76c88.22-41.74,187.95-51.28,279.57-12.12,88.46,37.7,149.9,134.51,148.93,230.47-1.21,125.82-47.62,207.58-95.13,320.31-37.08,88-59.99,161.93-91.61,250.79-61.68,173.31-20.48,227.16,43.38,388.11,31.14,78.46,25.57,119.33,60.59,201.71,24.6,57.65,51.99,117.25,93.07,164.87,22.54,26.07,12.72,171.23,53.2,189.47-40.84-12.12-35.51-163.77-55.62-186.65-41.93-47.86-70.04-107.34-95.37-165.6-35.75-82.37-30.42-123.25-61.8-201.22-65.44-162.54-107.12-217.62-45.2-393.62,27.51-78.33,47.38-144.92,79.98-222.39,72.1-171.48,185.65-357.76,35.75-520.67-88.46-96.08-239.21-90.33-349.73-43.45h0Z"></path><path class="cls-2" d="m272.9,2488.16c73.56-40.27,162.5-34.27,232.18,11.14-76.71-34.76-152.69-40.02-232.18-11.14h0Z"></path><path class="cls-2" d="m383.54,1368.74c-107.37,127.41-175.71,379.18-184.44,543.31-4.6,87.88,6.3,166.33-.12,256.42-6.3,88.74-46.9,411.37-25.57,474.4,16.48,48.59,76.34,124.84,102.64,201.71,23.75,69.64,77.31,185.8,113.06,250.54,55.87,100.98,54.05,125.58,72.47,233.53,13.69,80.29,20.12,33.29,26.9,55.57-10.18-19.95-14.42,23.25-29.08-55.2-20.12-107.22-17.57-130.84-74.16-231.33-36.72-65.11-91.01-181.27-115.37-251.4-26.42-76.13-86.4-151.16-103.37-200.36-28.48-82.62,31.27-441.48,28.24-565.22-3.64-145.04-9.21-231.21,31.75-376.49,31.87-113.46,77.19-248.22,157.05-335.49h0Z"></path><path class="cls-2" d="m496.85,3387.03c89.92-54.83,193.65-68.66,265.27-150.67,3.39-3.92,5.57-7.1,11.15-5.63-3.64.98-4.97,1.22-7.51,4.41-71.98,91.06-166.87,106.73-268.9,151.89h0Z"></path><path class="cls-2" d="m242.49,2781.18c-13.69,74.05-40.6,122.4-54.65,201.34-11.15,62.18-48.23,149.44-14.42,210.15,26.42,47.12-77.56,151.77,157.41,167.44,50.65,3.43,67.5.73,116.21-9.42-50.17,14.2-63.26,16.64-116.58,14.08-239.45-11.14-142.02-128.76-163.96-167.19-36.48-63.77,2.42-150.3,15.15-215.54,15.75-81.02,40.96-124.23,60.83-200.85h0Z"></path><path class="cls-2" d="m969.45,3180.43c59.86,71.97,4.24,259.6-2.79,357.27-3.76-112.73,52.96-273.31,2.79-357.27h0Z"></path><path class="cls-2" d="m552.11,3367.45c45.44,58.38,39.38,61.32,128.45,26.56,58.05-22.52,91.25-51.16,120.33-104.65-24.84,69.76-81.43,102.93-149.78,122.52-65.32,18.73-66.29,12.12-99.01-44.43h0Z"></path><path class="cls-2" d="m610.15,3423.26c-9.94,58.99,7.15,72.21,38.66,122.89-36.84-35.13-63.38-73.07-38.66-122.89h0Z"></path><path class="cls-2" d="m800.89,3289.36c62.89,76.86-24.6,215.41-96.82,253.97,66.65-49.33,144.21-171.11,96.82-253.97h0Z"></path><path class="cls-2" d="m201.04,3336.72c11.63,49.45,38.05,151.16,66.41,195.46-42.78-42.35-60.59-139.65-66.41-195.46h0Z"></path><path class="cls-2" d="m1606.26,935.58c54.29,22.89,8.97,90.7,165.05,15.91l-44.47,28.27c-84.58,42.23-83.01-10.89-120.58-44.18h0Z"></path><path class="cls-2" d="m1572.81,973.28c-35.39,115.91-105.91,202.93-108.09,336.34-1.09,63.03,3.39,52.87-7.88,120.07-8.48,49.94-20.72,99.14-10.18,149.08,19.75,93.75-9.82,245.28,14.3,305.86,27.75,69.77,43.62,146.02,48.23,220.43,2.67,42.59,8.24,67.56,18.54,108.32-13.33-42.47-18.66-62.91-22.18-108.08-5.7-73.31-21.81-148.59-49.68-217-27.02-66.22,2.67-211.62-17.09-306.23-11.27-53.36,1.21-100.49,10.66-153.73,11.88-67.32,7.15-55.57,8.73-118.85,3.15-120.8,69.68-228.27,114.64-336.22h0Z"></path><path class="cls-2" d="m1781.13,949.54c10.3,19.71-43.87,213.09-46.29,271.71-6.67,156.91-40.11,261.93,8.72,415.29,24.24,76.01,25.69,77.35-5.7,157.64-47.14,120.32-105.55,233.29-156.08,351.64-18.78,44.06-13.69,32.31-38.41,73.56,21.93-41.37,18.06-31.45,35.51-74.66,48.23-119.33,106.03-232.55,152.2-353.35,30.3-79.07,28.48-78.09,4.6-151.77-49.32-152.99-14.66-261.68-6.54-418.1,3.39-65.11,58.65-248.09,51.99-271.96h0Z"></path><path class="cls-2" d="m1728.05,1576.44c74.53,50.3,141.78,97.67,214.61,149.69,21.45,15.3,13.94,6.24,32.96,28.89l-14.18-12.24c-74.41-56.06-161.17-99.88-233.39-166.33h0Z"></path><path class="cls-2" d="m1834.08,1610.23c20.12,24.97,18.3,24.23,23.63,55.57-15.03-24.72-14.91-28.39-23.63-55.57h0Z"></path><path class="cls-2" d="m2150.36,1592.35c-24.11,52.26-16,156.18-17.69,214.31-4.48-50.92-20.24-169.15,17.69-214.31h0Z"></path><path class="cls-2" d="m2081.65,1917.8c42.66-54.71,43.14-62.3,53.08-130.96,1.33,72.7,0,81.88-53.08,130.96h0Z"></path><path class="cls-2" d="m2132.67,1759.06c43.14,41.98,131.12,119.83,49.2,168.66,62.41-57.77-.49-106.97-49.2-168.66h0Z"></path><path class="cls-2" d="m2081.65,1955.5c66.53-43.94,38.54-25.09,65.32-102.2,10.3-29.86,42.29-7.22,39.38,27.17-1.21,13.34-2.42,23.62-2.55,37.33-4.12-17.5-2.67-20.44-2.42-37.57.49-25.09-19.75-46.14-26.78-24.23-22.66,70.13-8.6,70.99-72.95,99.51h0Z"></path><path class="cls-2" d="m1798.09,1528.59c-27.63-2.45-18.78,104.03,28.36,83.35.97-.49,1.09-2.2,5.33-4.04-3.15,5.75-2.42,6.24-9.33,9.3-60.83,27.17-49.68-117.99-24.36-88.61h0Z"></path><path class="cls-2" d="m2155.7,1509.25c63.01-47.12,41.81,166.46-7.63,86.04-2.42-3.92-2.3-3.43-5.09-5.88,3.51-2.57,13.09,12.36,16.24,15.06,25.57,22.76,55.5-111.26-3.51-95.22h0Z"></path><path class="cls-2" d="m2160.3,1542.42c-10.79-24.85,50.29,28.15,1.82,34.15,19.39-19.71,4.73-40.02-1.82-34.15h0Z"></path><path class="cls-2" d="m1819.9,1596.76c-31.63-96.45-49.81-166.33,5.57-260.94,48.71-83.11,150.39-111.63,237.64-71.36,70.41,32.44,117.55,142.35,104.22,213.09l-8,28.88,5.7-29.37c9.45-71.11-36.23-175.51-104.82-205.99-83.49-37.21-181.29-10.16-228.67,68.3-57.68,95.71-35.63,158.87-11.63,257.4h0Z"></path><path class="cls-2" d="m1954.05,1413.41c-29.81-2.69-84.58,40.02-89.07,73.19-2.91,21.42-7.88,84.82,9.21,105.26,12.48,14.93,30.9,7.83,55.99,16.4,59.74,20.32,36.72,6.24,100.1-1.1,17.21-1.96,70.16-2.33,66.41-39.53-2.18-21.05-9.57-13.34-9.33-55.45.24-47.98-40.84-85.55-84.22-97.18-2.79-.74-3.39-.61-6.18-.74,4.48-.98,5.09-.98,9.82.49,108.21,34.51,72.83,93.02,92.1,139.04,13.69,32.56-14.06,57.16-42.9,59.73-71.26,6.36-65.92,24.6-128.57,2.2-26.3-9.3-43.99-1.1-58.65-19.34-18.54-22.77-12.72-86.29-8.97-110.52,5.57-35.37,66.65-81.15,94.28-72.46h0Z"></path><path class="cls-2" d="m1997.92,1418.06c65.2,26.32,85.8,40.51,71.86,110.52-9.45,47.37-48.11-8.94-71.38,13.95-17.69,17.38-36.96-23.62-3.27-46.63-11.88-.12-28.72,1.1-38.29,1.71,19.87,26.07,14.18,36.72-17.57,49.45-36.84,14.81-83.74-33.29-46.9-70.01,23.15-23.01,3.63-39.29,63.5-49.08,3.51-.61,3.64-1.35,4.6-4.41.73,3.55-1.21,4.89-4.48,5.75-61.44,16.04-34.29,23.87-60.71,51.41-31.02,32.44,10.54,72.95,41.44,59.85,40.84-17.26,19.75-14.57,12.84-42.1-20.6-11.38,37.44-14.2,57.93-9.18l.36-.12-.24.24c6.91,1.71,9.45,4.28,3.03,7.83-42.41,23.26-23.51,45.16-18.9,41.37,36.35-30.23,63.38,29.62,72.34-11.51,15.03-68.91-5.45-77.6-66.17-109.05h0Z"></path><path class="cls-2" d="m1834.57,1354.42c20.96-37.33,48.47-54.1,92.82-50.79,19.63,1.47,23.75,26.81-19.63,24.97-32.96-1.35-41.69-.24-66.77,19.34,34.05-45.28,88.95-13.95,91.86-34.27-2.42-.98-3.27-1.22-6.18-1.47-46.29-5.26-64.23,9.67-92.1,42.23h0Zm98.28-40.88h0Z"></path><path class="cls-2" d="m2105.53,1337.9c-1.45-1.22-2.79-2.45-4.24-3.67-21.57-12.61-43.87-19.46-69.19-17.87-37.57,2.2-38.66-18.11-25.81-22.03,38.41-11.75,71.62,10.16,95.01,38.19,2.67,1.59,4.61,3.31,4.24,4.41-.36-.24-.61-.49-1.09-.73l-.48-.37c.48.61,1.09,1.34,1.57,2.08h0Zm-10.42-8.93c-25.33-20.81-49.08-35.49-84.95-26.8-.61.12-1.82.49-2.54.86,3.03,13.71,41.93-5.14,82.04,23.01.85.61,3.03,1.71,5.45,2.94h0Zm-87.61-26.56v-.12.12Z"></path><path class="cls-2" d="m2076.32,2357.57c0,133.17-25.93,248.46-29.45,377.34-2.79,105.14-8.36,207.83-14.06,312.96-.48-46.88-1.21-93.88.85-140.75,2.67-63.28,3.88-109.18,5.09-172.33,2.18-118.6,29.69-252.13,37.57-377.22h0Z"></path><path class="cls-2" d="m1979.01,1753.06c65.56,10.28,102.4,131.7,103.61,188.37,2.06,99.39,5.57,212.6,4.12,310.76-1.21,86.78-5.57,143.57-33.2,226.06-25.08,74.78-28.36,150.91-64.35,223.25-58.65,117.87-47.26,247.48-188.32,319.82-112.34,57.65-326.7-56.42-436.25-99.75-9.82-3.79-63.5-23.5-69.07-36.84,8.6,12.73,58.41,30.23,70.04,34.52,107.37,40.51,323.43,153.12,432.13,96.45,137.9-71.97,126.51-201.34,184.56-319.08,34.17-69.4,39.26-148.59,64.1-221.29,27.63-81.03,32.11-137.82,33.93-223.25,2.06-98.53-.73-210.89-1.94-310.88-.73-58.02-35.26-172.33-99.37-188.12h0Z"></path><path class="cls-2" d="m1301.73,2890.96c29.2-142.22,131.12-331.32,177.04-481.99,21.09-68.91,40.84-122.27,58.41-193.63.24-1.1,2.18-3.43,2.79-4.28-1.09,3.06-.48,1.59-1.82,4.41-12.24,72.82-32.96,125.45-53.08,195.22-47.38,164.74-137.54,320.31-183.35,480.28h0Z"></path><path class="cls-2" d="m1527.49,2393.06c77.19-33.9,192.68-16.52,275.44-8.32-87.01,3.79-194.25-13.59-275.44,8.32h0Z"></path><path class="cls-2" d="m1970.77,1750.98c91.37,136.96,65.07,224.59,87.98,377.96,7.76,51.9,19.99,116.4,23.75,167.93-12.6-49.45-21.69-115.79-30.42-166.82-27.27-160.09,4.36-227.16-81.31-379.06h0Z"></path><path class="cls-2" d="m1426.06,2949.47c-.49,79.8-69.07,315.04,46.53,115.54,18.42-31.82,23.51-46.14,38.41-79.92-17.69,53-24.96,72.34-55.62,119.95-103.49,160.7-33.08-129.49-29.33-155.56h0Z"></path><path class="cls-2" d="m2204.77,1836.66c52.47,11.5,231.82,103.18,260.54,145.28,65.68,96.33,17.33,293.26,27.51,414.8,6.06,71.6,13.33,174.78,31.63,241.73,31.99,116.76-28.36,214.44-33.57,326.79-4.61,97.43,23.87,115.05-28.48,185.06l-13.33,18.85,12.24-19.83,15.15-20.32c24.48-38.31,7.88-113.46,9.82-163.89,3.88-109.05,62.65-212.85,31.39-323.74-18.9-67.44-27.51-171.84-33.2-243.56-9.45-120.07,39.51-318.96-23.87-413.08-26.3-39.17-205.89-133.29-255.81-148.1h0Z"></path><path class="cls-2" d="m2474.04,2033.34c16.6,114.44-29.08,246.38-59.74,356.41-8.36,29.99-24.12,76.25-27.27,107.95-2.91-21.91-.24-18.24,7.76-53.24,28.11-124.35,85.92-286.04,79.25-411.12h0Z"></path><path class="cls-2" d="m2295.9,1889.04c-7.51,12.85-13.81,22.77-27.75,28.27-.48,16.77,78.65-10.04,81.43,59.61,3.64,91.06,7.39,189.83,12.85,280.65,8.6,141.12,28.48,299.99,43.87,442.21,13.93,130.11,45.2,253.97,67.74,382.97,11.51,65.24-31.14,108.69-55.02,164.13-14.54,34.03-5.57,5.26-25.81-6.61,22.66,8.57,10.54,39.05,23.87,5.88,19.99-49.82,45.44-71.72,52.35-121.78,8.36-60.34-55.99-298.64-67.62-394.6-17.81-148.34-38.17-323.98-45.93-471.83-4.85-90.33-7.75-190.69-10.18-281.14-1.82-66.22-95.37-44.18-79.25-60.95,5.7-5.87,10.42-.49,29.45-26.8h0Z"></path><path class="cls-2" d="m2210.95,1899.44c18.3,118.11,47.87,213.33,59.02,335.73,18.3,202.32,22.66,398.76,43.26,602.55,14.3,142.47,34.41,359.84,64.95,492.52-39.26-121.17-87.98-621.03-96.34-770.97-6.06-111.26-8.6-210.76-17.81-323.61-10.06-122.64-41.44-220.31-53.08-336.22h0Z"></path><path class="cls-2" d="m2463.62,3169.17c8.85,69.64,30.17,108.69,37.93,160.83,6.42,43.94-54.77,18.36-72.47,6.61-2.06-1.35-43.14-34.88-46.17-29.38-4.24-8.57,27.63,11.02,27.75,11.14,10.06,6.36,90.28,54.95,82.65,13.22-12.24-67.56-27.87-81.15-29.69-162.42h0Z"></path><path class="cls-2" d="m1519.25,2989.25c-3.76,92.04-38.66,178.82-51.62,271.59-9.81,69.52-23.02,100.73-27.27,180.16-2.42,43.7-4.6,55.93.12,100.49-19.99-99.75,4.48-184.45,18.54-279.92,13.81-93.75,47.02-176.13,60.23-272.33h0Z"></path><path class="cls-2" d="m2376.61,3321.79c-.36,61.81-6.42,159.6-22.78,219.7,7.63-75.27,9.33-143.57,22.78-219.7h0Z"></path><path class="cls-2" d="m2409.81,3330.24c7.27,82.86-5.82,123.86-20.72,205.01.24-59.24,15.87-138.43,20.72-205.01h0Z"></path><path class="cls-2" d="m1813.36,3018.5c55.02,2.08,84.46,10.65,136.69,25.09-51.5-2.69-87.49-13.22-136.69-25.09h0Z"></path><path class="cls-2" d="m2039.12,3047.87c29.33,12.73,196.43,15.67,226.12,10.16,27.51-5.14,22.9-7.34,55.5-8.08-24.24,4.65-33.2,8.2-54.53,13.46-31.63,7.71-218.61,4.28-227.09-15.54h0Z"></path><path class="cls-2" d="m2012.1,3208.94c-13.94,89.72-16.97,193.87-26.9,286.53-2.91-68.54,5.82-223.98,26.9-286.53h0Z"></path><path class="cls-2" d="m1537.91,3075.05c77.19,24.23,107.61,30.84,188.07,38.68,2.3.25,2.79,1.59,4.48,3.18-1.94-.12-2.18,0-3.39-1.35h0v.12h-.12c-83.86,3.3-114.15-6-189.04-40.63h0Z"></path><path class="cls-2" d="m1798.82,3035.27c1.45,41.25,5.57,47.61-8.24,83.72.85-41.25.85-38.68,8.24-83.72h0Z"></path><path class="cls-2" d="m1751.19,3110.54c.61-19.71-1.57-61.07,12.48-77.35-4.61,33.66.97,38.8-12.48,77.35h0Z"></path><path class="cls-2" d="m1800.88,3129.39c51.26-.86,86.77,2.81,136.69,14.69-51.26-.73-86.4-4.41-136.69-14.69h0Z"></path><path class="cls-2" d="m2144.67,3167.09c64.35-5.63,123-16.03,186.38-23.01-74.04,20.93-110.52,27.29-186.38,23.01h0Z"></path><path class="cls-2" d="m2039.12,3045.79c-89.19-10.65-79.13,2.33-88.46,79.68-5.82,47.98,11.39,32.92,66.65,38.06l52.84,5.63-53.2-.61c-48.96-1.1-81.68,11.99-74.89-44.18,9.21-75.89,9.69-101.59,97.07-78.58h0Z"></path><path class="cls-2" d="m2074.26,3072.96c-5.7.37-71.25,1.96-72.83,8.69h0c-2.91,18.85-5.57,39.66-17.21,56.18,11.51,6.61,58.89,2.81,77.68,18.73-29.08-9.79-94.4-.74-83.98-23.87,27.39-60.95-5.94-71.85,96.34-59.73h0Z"></path><path class="cls-2" d="m2132.31,3058.28c-1.7,42.59-5.21,69.76-16.6,110.89-.24-42.47,4.36-70.38,16.6-110.89h0Z"></path><path class="cls-2" d="m2101.16,3062.44c8.12,46.27-.48,64.01-10.3,108.81-.61-45.41,7.39-66.46,10.3-108.81h0Z"></path><path class="cls-2" d="m1999.25,900.09c-8.6-15.18,108.7-147.36,135.36-163.15-18.54,17.75-122.63,136.84-135.36,163.15h0Z"></path><path class="cls-2" d="m2134.61,739.27c33.57,35.49,69.07,86.29,99.73,115.17-13.69,7.59-95.37-108.56-99.73-115.17h0Z"></path><path class="cls-2" d="m2001.55,900.09c39.51,38.19,65.2,68.3,97.43,112.73-40.23-35.98-66.28-69.03-97.43-112.73h0Z"></path><path class="cls-2" d="m2075.23,1051.25c59.74-69.64,107.25-155.07,180.56-211.13-61.8,63.4-119.36,159.6-180.56,211.13h0Z"></path><path class="cls-2" d="m2082.38,1048.8c78.16,127.17,123.48,203.05,231.21,309.42,90.04,88.98,150.75,156.05,227.09,256.91,52.71,69.64,127.12,141.24,186.25,213.58,8.85,10.89,79.86,95.22,79.98,115.05-4.97-21.17-72.35-99.26-83.25-112.24-59.5-70.62-136.09-143.45-188.8-211.87-74.89-96.94-139.84-169.39-226.25-256.3-101.55-102.2-157.9-188-226.24-314.55h0Z"></path><path class="cls-2" d="m2253.37,840.12c63.38,77.96,124.33,173.07,196.92,240.26,53.44,49.69,42.29,38.68,98.28,100.73,54.05,59.97,104.94,116.15,158.38,176.98,81.68,92.9,144.57,114.44,241.27,185.06,22.05,16.16,46.78,36.6,65.32,57.53-19.87-18.11-46.05-39.78-67.13-54.47-98.28-68.79-162.5-91.06-245.03-183.23-52.71-58.99-106.4-117.62-158.75-176.61-55.87-63.03-43.63-50.67-96.82-101.1-69.44-65.85-135.48-166.46-192.44-245.16h0Z"></path><path class="cls-2" d="m3138.35,978.79c-61.44,51.29-89.07,49.94-110.4,122.76-27.27,92.78-167.23,83.96-78.77,144.92l15.03,10.4c-127.73-63.64,28.23-70.5,55.86-156.91,23.87-74.78,51.74-75.27,118.27-121.17h0Z"></path><path class="cls-2" d="m2967.85,1258.09c-60.47,75.52,31.87,22.52-48.59,134.51-99.49,138.06,178.99,80.78,144.21,180.04-5.33,15.05-25.21,32.93-42.05,31.21,13.69-2.69,24.6-10.4,32.96-21.91,42.9-58.5-86.52-75.76-106.64-81.76-70.29-20.93-71.74-61.56-33.93-111.75,79.62-105.5-13.09-67.8,54.05-130.35h0Z"></path><path class="cls-2" d="m2967.85,1268.01c31.87-.12,74.04,1.47,61.92,47.61l-.97,2.81c-17.69-46.75,4.97-30.84-60.95-50.43h0Z"></path><path class="cls-2" d="m2950.76,1301.18c12.24,2.81,79.01,10.28,74.77,19.34l-.12-.12c.12.36.12.86-.12,1.34h-1.57l-.12-.24c-14.18-3.06-65.32-8.32-72.83-20.32h0Zm72.71,19.83v.12h.12l-.12-.12Z"></path><path class="cls-2" d="m2949.55,1357.72c39.87,34.52,47.62,8.2,74.28-36.84-10.3,43.08-44.72,90.69-74.28,36.84h0Z"></path><path class="cls-2" d="m3030.02,1324.56c13.33,48.47,31.63-6.24,79.01,13.46,21.33,8.93,43.63-84.94,58.77-102.93,15.39-18.11,36.23-29.25,57.08-39.78-18.66,14.2-38.41,25.46-52.35,43.57-15.63,20.2-32.72,121.29-66.41,105.63-37.45-17.5-74.89,30.97-76.1-19.95h0Z"></path><path class="cls-2" d="m3274.8,1206.44c-90.16,115.3-13.57,89.1-17.94,209.05-2.3,61.81-109.18,62.3-157.29,92.04-29.81,18.24-13.69,10.53-46.41,22.52,32.11-16.03,14.3-5.87,44.11-25.95,46.65-31.46,147.96-33.9,150.99-88.98,6.3-112.85-72.47-105.5,26.54-208.68h0Z"></path><path class="cls-2" d="m3295.52,1187.96c100.58-75.64,198.01,34.52,48.23,116.28-25.81,14.07-93.31,36.96-98.4-12.24,0-.24,1.45-12.97,1.45-12.97,6.79,39.78,24.72,48.22,67.38,32.07,146.63-55.44,117.79-195.71-18.66-123.13h0Z"></path><path class="cls-2" d="m3348,1197.88c19.99-13.95,50.05,64.01-37.81,56.3-1.21.37-.61.24-2.42.24,3.76-5.02,7.76-2.57,15.63-3.79,48.96-8.08,47.38-48.47,24.6-52.75h0Z"></path><path class="cls-2" d="m3028.81,1096.9c48.11-34.51,57.44-29.13,88.95,21.05.36.49,2.42,4.29,1.33,4.9l-.12-.12-.12-.12h-.12c-48.35-42.47-24.36-51.53-89.92-25.7h0Z"></path><path class="cls-2" d="m3032.44,1104.25c34.3-10.28,53.68-22.28,79.5,16.28,1.09,1.59,1.09,1.72.85,3.43-61.92-40.63-30.54-14.69-80.34-19.71h0Z"></path><path class="cls-2" d="m3138.35,975.12c12.12,2.57,153.66,32.68,109.18,62.42-61.44,41-1.21,71.97-16.36,132.19l-8.72,24.36c7.88-37.82,12-45.41-1.94-80.66-26.9-67.81,14.78-69.03,28.36-86.78-9.45-18.61-89.68-44.06-110.52-51.53h0Zm110.64,51.77h0Z"></path><path class="cls-2" d="m3139.69,978.79c-50.41-32.8-42.17-173.43,134.03-112.85,35.02,12.12,177.53,57.65,201.16,72.33,39.99,24.85,144.08,109.55,128.09,166.21-20.72,73.07,43.75,72.58,1.45,156.91-20.72,41.49,5.82,49.69-35.14,91.43-47.26,47.98-90.52,99.87-142.63,142.47-16.48,13.46-14.66,15.42-22.66,35.98,5.7-21.05,5.33-24.23,21.21-37.94,52.11-44.55,92.46-94.86,140.45-144.67,38.05-39.66,12-47.37,33.2-90.69,39.63-80.9-24.72-78.33-3.39-156.3,13.57-49.33-89.8-134.64-124.7-156.79-22.18-14.08-165.41-61.57-199.1-73.56-165.66-58.99-180.44,67.56-131.97,107.46h0Z"></path><path class="cls-2" d="m3401.56,1260.54c-8.36,46.27,4.36,62.91-4.24,90.94-10.91,35.49-20.84,3.92-2.79,58.87,15.51,47,15.51,68.66,13.09,117.25-.97-12.24-3.76-46.75-5.7-58.99-5.45-35.74-34.29-84.33-20.96-103.18,29.33-41.61-.36-45.41,20.6-104.89h0Z"></path><path class="cls-2" d="m3042.14,1591.62c29.08,30.48,47.26,59.24,58.53,99.63-18.18-31.7-45.32-69.15-58.53-99.63h0Z"></path><path class="cls-2" d="m3094.61,1698.6c74.41-49.94,173.17-87.02,253.39-136.11,41.32-25.33,22.54-15.42,54.77-31.21l-18.3,12.36c-90.52,61.81-188.8,112.72-289.87,154.95h0Z"></path><path class="cls-2" d="m3023.23,1611.33c-2.42,32.8,2.18,97.92-8,125.94-9.57-40.63-.85-85.8,8-125.94h0Zm-8,125.94c-.36.98-.73,1.84-1.09,2.69l1.58-.86c-.12-.61-.36-1.23-.49-1.84h0Zm.49,1.84c26.66-15.05,52.71-31.7,80.95-43.7-25.45,18.24-52.11,35-78.77,51.53-.73-2.57-1.58-5.14-2.18-7.83h0Z"></path><path class="cls-2" d="m3108.91,1707.77c2.67,9.55,24.48,88.86,33.45,95.1,76.59-43.57,204.8-101.95,288.65-138.3l30.54-11.14c-36.96,17.87-71.62,37.09-108.82,55.32-33.93,16.52-186.98,84.7-206.49,98.28-19.63,13.71-36.48-94.12-37.32-99.26h0Z"></path><path class="cls-2" d="m3407.62,1532.14c66.29,50.18-15.75,80.17,79.13,105.14,11.39,3.06,52.59,42.84,64.11,50.43,35.87,23.87,67.38,33.54,111.24,63.52,44.47,30.48,38.29,26.93,72.22,59.98,2.67,1.71,1.33.73,3.88,2.94-3.03-1.1-74.65-55.08-79.25-58.02-39.14-25.21-83.37-41.49-113.06-61.2-7.76-5.14-53.56-48.59-60.23-50.67-98.28-29.74-17.57-48.71-78.04-112.11h0Z"></path><path class="cls-2" d="m3718.69,1809.24c-79.86,7.34-87.49.37-131.48,60.46-77.44,106.12-77.31,150.55-89.43,274.41-13.45,137.33-4.48,137.2,34.78,264.98,18.18,59.24,28.84,78.33,58.77,132.19-34.9-55.32-43.14-68.05-63.62-130.72-41.08-126.19-50.65-130.47-38.41-267.19,11.03-121.78,16.6-174.78,93.67-276.49,45.44-60.09,55.38-55.57,135.72-57.65h0Z"></path><path class="cls-2" d="m2812.62,1947.67c29.93,155.07-19.75,332.18-18.18,492.03,1.33,134.51-7.51,252.5-9.94,384.93-1.09,56.79,6.06,112.72,4.36,164.13-1.7,48.96-17.09,121.29,4.12,168.29-27.14-45.65-5.57-155.07-9.57-212.35-11.27-159.36,2.91-319.57,3.27-481.26.36-165.36,46.53-366.94,25.93-515.77h0Z"></path><path class="cls-2" d="m3069.76,1722.58c-12.6,33.17-10.3,29.25-24.24,52.14,14.42,3.06,40.35,33.05,43.75,36.96-36.6-27.42-26.78-16.77-52.47-29.62-9.57-4.65,28.24-51.77,32.96-59.48h0Z"></path><path class="cls-2" d="m3130.96,1789.41c-127.48,77.97-196.92,939.75-179.71,1107.18.48,5.51,1.82,25.46,8.24,30.48-47.26-8.93,23.87-1072.54,171.47-1137.66h0Z"></path><path class="cls-2" d="m2866.54,3050.69c-85.19-115.05-58.29-170.86-47.62-308.43,28.24-364.12,36.48-604.39,209.16-938.15l7.39-14.69c-11.88,29.5-1.82,5.63-23.63,50.55-146.39,300.48-158.63,577.58-186.86,902.78-12.24,140.51-38.78,186.77,41.57,307.95h0Z"></path><path class="cls-2" d="m2883.63,3050.69c29.08-60.22,41.44-65.24,80.83-113.7-20.24,40.88-53.56,75.64-80.83,113.7h0Z"></path><path class="cls-2" d="m3596.18,2543.73c28.36,48.22-23.03,115.54-59.86,142.84-60.71,44.67,81.8,123.01,41.69,256.66-18.66,62.3,67.38,104.65,11.63,172.7-14.66,17.87-9.33,8.45-20.36,23.87,8.72-18.48,2.79-4.9,18.3-25.58,51.87-69.52-35.26-105.63-16-173.68,36.23-128.27-107.12-210.52-38.41-259.35,40.11-28.4,82.77-85.43,63.01-137.45h0Z"></path><path class="cls-2" d="m3598.6,2563.56c5.94,32.31,41.69,189.83,96.94,173.56,38.05-11.26,111.49,22.03,40.35,77.35-62.89,48.84-63.5,10.65-54.41,93.51,13.09,117.87-62.65,119.33-81.92,219.7-20.36,105.99-29.69,43.45-86.52,98.28-28.6,27.54-69.44,72.58-95.61,104.28,13.81-23.01,74.65-90.45,92.34-107.58,58.65-57.04,64.95,5.87,83.37-96.08,18.54-102.57,91.98-101.95,79.98-217.5-9.21-88.61-4.97-52.51,58.53-100.49,65.92-50.06-4.61-74.29-33.93-66.22-62.53,17.38-96.22-141.73-99.13-178.82h0Z"></path><path class="cls-2" d="m2778.32,3149.71c100.46,51.28,8.73,66.95,199.95,41,90.89-12.36,170.99-13.59,260.42-26.31,80.95-11.63,80.71-4.16,155.6.61,106.4,6.73,118.76-39.78,184.8-49.94-16.6,4.41-13.33,2.82-30.3,11.14-116.09,56.55-81.55,45.9-207.7,39.41-77.31-4.04-126.51,16.89-203.1,17.62-61.32.61-128.21,10.04-189.29,17.5-144.21,17.5-86.16,1.71-170.38-51.04h0Z"></path><path class="cls-2" d="m3099.09,3043.34c94.28-4.04,372.87,13.1,462.79,32.07-151.6-13.95-309.74-20.32-462.79-32.07h0Z"></path><path class="cls-2" d="m3253.35,3013.6c75.25-37.21,220.31-39.9,301.26-20.68,1.94.49,4.73.49,7.27.98-4.6,1.1-5.45,1.22-10.18.37-68.35-13.59-231.46-1.96-298.35,19.34h0Z"></path><path class="cls-2" d="m3277.83,2613c72.71,63.28,177.65,162.05,259.57,205.26-87.61-32.56-196.68-134.88-259.57-205.26h0Z"></path><path class="cls-2" d="m3735.78,1819.03c103.85,124.35,112.21,132.55,179.47,291.18,51.5,121.54,79.74,218.72,140.45,342.7,32.72,66.71,107.73,255.07,87.37,324.71-25.93,88.86-404.99,595.94-488.24,685.78-36.84,39.78-13.81,16.89-33.2,41.49-3.51,4.53-5.09-.61-5.82-4.04,1.09,2.81,2.3,7.47,5.21,3.43,19.63-27.42-4.36-1.59,32.23-42.47,80.83-90.33,457.46-601.08,482.06-687,18.66-65.6-55.26-254.7-86.04-318.35-60.47-124.96-87.98-221.66-138.75-344.3-68.1-164.01-73.8-162.54-174.74-293.14h0Z"></path><path class="cls-2" d="m3417.43,3342.6c55.14,44.55,99.49,93.14,158.02,140.39l28.11,22.76c-94.89-58.5-112.7-86.41-186.13-163.15h0Z"></path><path class="cls-2" d="m3542.37,3218.86c57.8,50.67,117.42,99.02,176.32,148.46-65.56-35.62-126.15-93.88-176.32-148.46h0Z"></path><path class="cls-2" d="m2778.32,3142.24c-77.68,190.08-75.5,158.13-59.74,365.59,1.58,20.81,1.58,19.46,3.39,35.13-5.09-16.52-3.88-10.77-6.91-34.76-23.63-185.67-22.42-199.63,63.26-365.96h0Z"></path><path class="cls-2" d="m3392.96,3317.88c-45.93,2.45-11.51,132.92,6.42,164.37,25.2,44.67,5.21,6.86,27.87,50.79-11.39-15.79-37.2-51.04-45.32-67.81-18.54-37.94-28.6-162.78,11.03-147.36h0Z"></path><path class="cls-2" d="m3645.13,3476.13c19.15,24.72,12.24,40.15,4.97,69.28-3.03-31.33,1.82-38.55-4.97-69.28h0Z"></path><path class="cls-2" d="m2778.32,3171.98c161.78,72.82,76.71,67.81,277.99,53,86.89-6.36,165.05-6,247.94-34.27,26.42-9.06,41.32-9.79,69.07-13.83-18.18,4.16-48.72,10.4-66.65,17.14-81.07,30.35-163.6,33.66-249.88,39.41-185.41,12.48-130.76,18.36-278.47-61.44h0Z"></path><path class="cls-2" d="m2744.03,3226.33c69.68,66.95,151.23,103.3,247.82,96.08,88.95-6.61,180.92-29.01,269.87-32.31,77.56-2.82,104.7-10.77,181.17-38.06l33.33-13.34-32.48,15.79c-70.65,29.5-108.58,38.43-181.77,42.23-88.34,4.65-179.23,27.54-269.63,33.05-94.16,5.75-185.89-31.58-248.3-103.42h0Z"></path><path class="cls-2" d="m3238.69,3221.43c7.39,0,155.6-1.96,134.39,47.86-13.69,32.07-67.62,16.16-92.34,25.7-2.3.98-2.54.61-5.33.61,37.57-17.01,58.17-.61,84.46-21.79,44.84-36.11-121.18-52.39-121.18-52.39h0Z"></path><path class="cls-2" d="m3067.34,3231.34c13.69,59.85,7.03,29.37,19.51,91.43-23.39-59.61-17.09-29.13-19.51-91.43h0Z"></path><path class="cls-2" d="m3130.96,3312.86c-15.03-26.93-20.36-45.65-22.06-76.62,13.45,29.25,17.33,44.92,22.06,76.62h0Z"></path><path class="cls-2" d="m2768.51,3263.41c.36-38.92,2.79-60.95,12.24-98.9,2.18,38.31-.97,62.3-12.24,98.9h0Z"></path><path class="cls-2" d="m2812.62,3186.79c-9.57,29.86-12.24,71.97-17.09,103.79-2.91-32.8-5.33-76.5,17.09-103.79h0Z"></path><path class="cls-4" d="m2002.16,889.2c60.11-50.18,104.58-133.16,134.39-139.41,16.72-3.43,25.81,19.95,49.08,67.56,38.05,77.23,14.91-29.01,88.22,90.08,58.04,94.24,206.13,202.56,304.89,335.97,76.95,103.91,238.12,243.44,348.15,310.76,144.21,88.12,68.71-17.99,153.17,125.95,26.3,44.92,293.99-119.46,335.79-148.83,10.66-7.47,43.02,136.59,104.7,153.97,70.04,19.71,179.59,105.99,236.18,162.3,39.38,39.17,192.8,378.2,288.77,623.85,115,293.99,169.65,196.69-37.08,514.18-61.8,94.98-311.68,429.36-385.36,492.76-38.41,33.05-60.35-12.85-98.88-47.24-26.66-23.74-127.97-80.78-87.86-113.34,42.78-34.76,279.81-316.02,263.33-356.54-34.42-84.21,66.65-146.38,78.65-187.14,7.27-24.85-48.71-26.68-101.43-64.99-7.75-5.75-70.89-136.23-72.47-140.75-5.21,48.59-23.99,1.23-27.63,12.97-31.27,100.49-78.89,161.07-40.6,236.71,11.63,23.13,91.86,294.48,20.12,300.85-33.69,2.94-176.2,49.45-280.41,56.67-124.82,8.81-346.09,138.43-472.61-31.7-38.66-52.02-17.81-188.24-17.09-344.66.85-170.62,32.11-603.41,32.11-753.1,0-116.76-61.32-186.9-163.35-308.43-74.04-88-196.8-239.89-262.12-294.36-85.8-71.85-333.25-396.68-311.44-426.06,37.44-50.67-71.86-102.2-72.59-102.32-1.94-9.55-13.94-19.58-6.67-25.7h0Zm1090.87,812.21c-59.5,73.31-118.64,182.61-154.38,270.74-67.13,165.48-118.64,465.22-123.97,705.24-4.24,186.04-65.2,165.23,15.03,344.66,45.81,102.44,73.8.37,138.39-55.32,7.51-6.49-8.85-410.02,1.57-463.26,43.38-220.92,8-498.88,144.08-685.66,17.33-23.74.49-100.85-20.72-116.4h0Z"></path><path class="cls-3" d="m869.11,812.21c-18.18,3.06-43.62,83.23-3.76,29.5,6.79-9.18,9.82-17.87,3.76-29.5h0Z"></path><path class="cls-4" d="m728.79,583.7c30.66-.98,15.75,71.23,4.48,85.55-18.18,22.64-29.08,68.78-8.48,95.22,60.71,78.09,41.69,51.53,41.69,144.43,0,34.64,0,63.4,32.72,88.24,25.33,19.22,53.8,102.69,81.8,72.95,22.3-23.74,37.81-23.5,67.38-29.5,23.51-4.9,15.15,26.19,7.88,40.14-20.36,38.31,28.72,84.08,28.72,135.49,0,30.23-32.36,49.08-56.83,59.24-16.84,7.1-69.92-31.58-107.25-37.7-46.29-7.47-79.98-64.62-69.44-112.85,5.09-23.26,2.06-38.8,11.27-63.04,13.09-34.39-14.18-27.66-19.63-59.97-5.09-29.86-33.32-49.69-59.98-58.01-33.69-10.65-32.84-65.6-90.76,29.86-17.45,28.64,7.39,77.84,26.54,100.85,27.51,33.05,23.27,80.54-8,110.77-16,15.54-10.78,21.54-44.47,37.45-22.06,10.4-83.86,35.25-108.7,31.09-37.44-6.24-75.25-113.7-107.49-146.75-13.21-13.71-1.58-10.77-27.87-30.6-17.09-12.85-41.57-47.37-47.02-69.15-18.42-72.58-20.48-52.14-11.15-124.96,5.09-39.78,37.81-24.72,47.5-74.05,5.33-27.66,36.47-92.78,59.98-108.44,50.05-33.17,38.29-25.21,78.4-40.51,22.54-8.45,84.71-50.18,106.76-52.14,30.42-2.69,101.19-19.58,140.21-21.66,5.33-.24,27.87-13.46,31.75-1.96h0Z"></path></svg>